<svg width="70" height="70" viewBox="0 0 70 70" fill="none" xmlns="http://www.w3.org/2000/svg">
<circle opacity="0.8" cx="35" cy="35.0002" r="35" fill="url(#paint0_linear_2_83)"/>
<circle cx="34.9999" cy="35.0002" r="29.2464" fill="white" stroke="black" stroke-width="2.57111"/>
<circle cx="35.3208" cy="34.6784" r="24.4255" stroke="black" stroke-width="1.92833" stroke-linecap="round" stroke-linejoin="round" stroke-dasharray="0.02 2.92"/>
<path d="M25.3697 44.6802C23.9754 44.5656 22.839 44.3555 21.9604 44.0499C21.1009 43.7252 20.4611 43.4578 20.0409 43.2477L21.2728 39.953C21.9413 40.2777 22.7339 40.5738 23.6507 40.8411C24.5866 41.1085 25.5702 41.2422 26.6016 41.2422C27.7667 41.2422 28.5593 41.0894 28.9795 40.7838C29.4188 40.4592 29.6384 40.0103 29.6384 39.4373C29.6384 39.0744 29.5525 38.7688 29.3806 38.5205C29.2087 38.2531 28.9604 38.0144 28.6357 37.8043C28.311 37.5942 27.9004 37.3937 27.4038 37.2027C26.9072 36.9926 26.3342 36.7729 25.6848 36.5437C25.0545 36.3145 24.4338 36.0662 23.8226 35.7988C23.2305 35.5123 22.6862 35.1685 22.1896 34.7675C21.7121 34.3664 21.3205 33.8793 21.0149 33.3063C20.7284 32.7142 20.5852 32.0076 20.5852 31.1863C20.5852 30.556 20.6711 29.9543 20.843 29.3813C21.034 28.7893 21.3205 28.2545 21.7025 27.777C22.0845 27.2995 22.5811 26.8984 23.1923 26.5737C23.8035 26.2299 24.5293 25.9816 25.3697 25.8288V22.7347H28.9795V25.7142C29.9727 25.8097 30.8226 25.953 31.5293 26.144C32.2551 26.335 32.8281 26.5259 33.2483 26.7169L32.3601 30.1549C31.7299 29.8875 30.9945 29.6583 30.1541 29.4673C29.3328 29.2763 28.4638 29.1808 27.547 29.1808C26.6302 29.1808 25.9713 29.3336 25.5702 29.6392C25.1691 29.9448 24.9686 30.3459 24.9686 30.8425C24.9686 31.1481 25.0259 31.4155 25.1405 31.6447C25.2742 31.8548 25.4747 32.0458 25.7421 32.2176C26.0095 32.3895 26.3342 32.5614 26.7162 32.7333C27.1173 32.8861 27.5948 33.058 28.1487 33.249C28.9891 33.5546 29.7626 33.8889 30.4693 34.2518C31.1951 34.6147 31.8158 35.0348 32.3315 35.5123C32.8663 35.9707 33.2769 36.5151 33.5634 37.1454C33.869 37.7757 34.0218 38.511 34.0218 39.3514C34.0218 39.9244 33.9359 40.4974 33.764 41.0703C33.5921 41.6242 33.3056 42.1399 32.9045 42.6174C32.5034 43.0949 31.9782 43.5056 31.3288 43.8493C30.6985 44.1931 29.9154 44.4414 28.9795 44.5942V48.0895H25.3697V44.6802ZM41.6529 44.6802C40.2586 44.5656 39.1222 44.3555 38.2436 44.0499C37.3841 43.7252 36.7443 43.4578 36.3241 43.2477L37.556 39.953C38.2245 40.2777 39.0171 40.5738 39.9339 40.8411C40.8698 41.1085 41.8534 41.2422 42.8848 41.2422C44.0499 41.2422 44.8425 41.0894 45.2627 40.7838C45.702 40.4592 45.9217 40.0103 45.9217 39.4373C45.9217 39.0744 45.8357 38.7688 45.6638 38.5205C45.4919 38.2531 45.2436 38.0144 44.9189 37.8043C44.5942 37.5942 44.1836 37.3937 43.687 37.2027C43.1904 36.9926 42.6174 36.7729 41.968 36.5437C41.3377 36.3145 40.717 36.0662 40.1058 35.7988C39.5137 35.5123 38.9694 35.1685 38.4728 34.7675C37.9953 34.3664 37.6037 33.8793 37.2982 33.3063C37.0117 32.7142 36.8684 32.0076 36.8684 31.1863C36.8684 30.556 36.9544 29.9543 37.1263 29.3813C37.3173 28.7893 37.6037 28.2545 37.9857 27.777C38.3677 27.2995 38.8643 26.8984 39.4755 26.5737C40.0867 26.2299 40.8125 25.9816 41.6529 25.8288V22.7347H45.2627V25.7142C46.2559 25.8097 47.1058 25.953 47.8125 26.144C48.5383 26.335 49.1113 26.5259 49.5315 26.7169L48.6434 30.1549C48.0131 29.8875 47.2777 29.6583 46.4373 29.4673C45.6161 29.2763 44.747 29.1808 43.8302 29.1808C42.9135 29.1808 42.2545 29.3336 41.8534 29.6392C41.4523 29.9448 41.2518 30.3459 41.2518 30.8425C41.2518 31.1481 41.3091 31.4155 41.4237 31.6447C41.5574 31.8548 41.7579 32.0458 42.0253 32.2176C42.2927 32.3895 42.6174 32.5614 42.9994 32.7333C43.4005 32.8861 43.878 33.058 44.4319 33.249C45.2723 33.5546 46.0458 33.8889 46.7525 34.2518C47.4783 34.6147 48.099 35.0348 48.6147 35.5123C49.1495 35.9707 49.5601 36.5151 49.8466 37.1454C50.1522 37.7757 50.305 38.511 50.305 39.3514C50.305 39.9244 50.2191 40.4974 50.0472 41.0703C49.8753 41.6242 49.5888 42.1399 49.1877 42.6174C48.7866 43.0949 48.2614 43.5056 47.612 43.8493C46.9817 44.1931 46.1986 44.4414 45.2627 44.5942V48.0895H41.6529V44.6802Z" fill="black"/>
<defs>
<linearGradient id="paint0_linear_2_83" x1="70" y1="64.7562" x2="-6.31952" y2="53.8077" gradientUnits="userSpaceOnUse">
<stop stop-color="#FF2A6D"/>
<stop offset="0.516647" stop-color="#A07EFF"/>
<stop offset="1" stop-color="#3DFFFF"/>
</linearGradient>
</defs>
</svg>
