<svg width="118" height="28" viewBox="0 0 118 28" fill="none" xmlns="http://www.w3.org/2000/svg">
<path d="M47.064 14.672C47.064 15.488 47.16 16.224 47.352 16.88C47.56 17.536 47.848 18.104 48.216 18.584C48.6 19.048 49.064 19.408 49.608 19.664C50.152 19.92 50.776 20.048 51.48 20.048C52.168 20.048 52.784 19.92 53.328 19.664C53.888 19.408 54.352 19.048 54.72 18.584C55.104 18.104 55.392 17.536 55.584 16.88C55.792 16.224 55.896 15.488 55.896 14.672C55.896 13.856 55.792 13.12 55.584 12.464C55.392 11.792 55.104 11.224 54.72 10.76C54.352 10.28 53.888 9.912 53.328 9.656C52.784 9.4 52.168 9.272 51.48 9.272C50.776 9.272 50.152 9.408 49.608 9.68C49.064 9.936 48.6 10.304 48.216 10.784C47.848 11.248 47.56 11.816 47.352 12.488C47.16 13.144 47.064 13.872 47.064 14.672ZM59.76 14.672C59.76 16.096 59.544 17.352 59.112 18.44C58.696 19.512 58.12 20.416 57.384 21.152C56.648 21.872 55.768 22.416 54.744 22.784C53.736 23.152 52.648 23.336 51.48 23.336C50.344 23.336 49.272 23.152 48.264 22.784C47.256 22.416 46.376 21.872 45.624 21.152C44.872 20.416 44.28 19.512 43.848 18.44C43.416 17.352 43.2 16.096 43.2 14.672C43.2 13.248 43.424 12 43.872 10.928C44.32 9.84 44.92 8.928 45.672 8.192C46.44 7.456 47.32 6.904 48.312 6.536C49.32 6.168 50.376 5.984 51.48 5.984C52.616 5.984 53.688 6.168 54.696 6.536C55.704 6.904 56.584 7.456 57.336 8.192C58.088 8.928 58.68 9.84 59.112 10.928C59.544 12 59.76 13.248 59.76 14.672ZM70.2489 13.544C69.9289 13.464 69.5529 13.384 69.1209 13.304C68.6889 13.208 68.2249 13.16 67.7289 13.16C67.5049 13.16 67.2329 13.184 66.9129 13.232C66.6089 13.264 66.3769 13.304 66.2169 13.352V23H62.6409V11.048C63.2809 10.824 64.0329 10.616 64.8969 10.424C65.7769 10.216 66.7529 10.112 67.8249 10.112C68.0169 10.112 68.2489 10.128 68.5209 10.16C68.7929 10.176 69.0649 10.208 69.3369 10.256C69.6089 10.288 69.8809 10.336 70.1529 10.4C70.4249 10.448 70.6569 10.512 70.8489 10.592L70.2489 13.544ZM77.3556 20.504C77.7076 20.504 78.0436 20.496 78.3636 20.48C78.6836 20.464 78.9396 20.44 79.1316 20.408V17.696C78.9876 17.664 78.7716 17.632 78.4836 17.6C78.1956 17.568 77.9316 17.552 77.6916 17.552C77.3556 17.552 77.0356 17.576 76.7316 17.624C76.4436 17.656 76.1876 17.728 75.9636 17.84C75.7396 17.952 75.5636 18.104 75.4356 18.296C75.3076 18.488 75.2436 18.728 75.2436 19.016C75.2436 19.576 75.4276 19.968 75.7956 20.192C76.1796 20.4 76.6996 20.504 77.3556 20.504ZM77.0676 10.04C78.1236 10.04 79.0036 10.16 79.7076 10.4C80.4116 10.64 80.9716 10.984 81.3876 11.432C81.8196 11.88 82.1236 12.424 82.2996 13.064C82.4756 13.704 82.5636 14.416 82.5636 15.2V22.64C82.0516 22.752 81.3396 22.88 80.4276 23.024C79.5156 23.184 78.4116 23.264 77.1156 23.264C76.2996 23.264 75.5556 23.192 74.8836 23.048C74.2276 22.904 73.6596 22.672 73.1796 22.352C72.6996 22.016 72.3316 21.584 72.0756 21.056C71.8196 20.528 71.6916 19.88 71.6916 19.112C71.6916 18.376 71.8356 17.752 72.1236 17.24C72.4276 16.728 72.8276 16.32 73.3236 16.016C73.8196 15.712 74.3876 15.496 75.0276 15.368C75.6676 15.224 76.3316 15.152 77.0196 15.152C77.4836 15.152 77.8916 15.176 78.2436 15.224C78.6116 15.256 78.9076 15.304 79.1316 15.368V15.032C79.1316 14.424 78.9476 13.936 78.5796 13.568C78.2116 13.2 77.5716 13.016 76.6596 13.016C76.0516 13.016 75.4516 13.064 74.8596 13.16C74.2676 13.24 73.7556 13.36 73.3236 13.52L72.8676 10.64C73.0756 10.576 73.3316 10.512 73.6356 10.448C73.9556 10.368 74.2996 10.304 74.6676 10.256C75.0356 10.192 75.4196 10.144 75.8196 10.112C76.2356 10.064 76.6516 10.04 77.0676 10.04ZM85.1972 16.688C85.1972 15.776 85.3412 14.92 85.6292 14.12C85.9332 13.304 86.3652 12.6 86.9252 12.008C87.4852 11.4 88.1652 10.92 88.9652 10.568C89.7652 10.216 90.6772 10.04 91.7012 10.04C92.3732 10.04 92.9892 10.104 93.5492 10.232C94.1092 10.344 94.6532 10.512 95.1812 10.736L94.4372 13.592C94.1012 13.464 93.7332 13.352 93.3332 13.256C92.9332 13.16 92.4852 13.112 91.9892 13.112C90.9332 13.112 90.1412 13.44 89.6132 14.096C89.1012 14.752 88.8452 15.616 88.8452 16.688C88.8452 17.824 89.0852 18.704 89.5652 19.328C90.0612 19.952 90.9172 20.264 92.1332 20.264C92.5652 20.264 93.0292 20.224 93.5252 20.144C94.0212 20.064 94.4772 19.936 94.8932 19.76L95.3972 22.688C94.9812 22.864 94.4612 23.016 93.8372 23.144C93.2132 23.272 92.5252 23.336 91.7732 23.336C90.6212 23.336 89.6292 23.168 88.7972 22.832C87.9652 22.48 87.2772 22.008 86.7332 21.416C86.2052 20.824 85.8132 20.128 85.5572 19.328C85.3172 18.512 85.1972 17.632 85.1972 16.688ZM102.837 23.24C101.797 23.224 100.949 23.112 100.293 22.904C99.6532 22.696 99.1412 22.408 98.7572 22.04C98.3892 21.656 98.1332 21.2 97.9892 20.672C97.8612 20.128 97.7972 19.52 97.7972 18.848V4.952L101.373 4.376V18.128C101.373 18.448 101.397 18.736 101.445 18.992C101.493 19.248 101.581 19.464 101.709 19.64C101.853 19.816 102.053 19.96 102.309 20.072C102.565 20.184 102.909 20.256 103.341 20.288L102.837 23.24ZM104.791 16.784C104.791 15.664 104.959 14.688 105.295 13.856C105.647 13.008 106.103 12.304 106.663 11.744C107.223 11.184 107.863 10.76 108.583 10.472C109.319 10.184 110.071 10.04 110.839 10.04C112.631 10.04 114.047 10.592 115.087 11.696C116.127 12.784 116.647 14.392 116.647 16.52C116.647 16.728 116.639 16.96 116.623 17.216C116.607 17.456 116.591 17.672 116.575 17.864H108.463C108.543 18.6 108.887 19.184 109.495 19.616C110.103 20.048 110.919 20.264 111.943 20.264C112.599 20.264 113.239 20.208 113.863 20.096C114.503 19.968 115.023 19.816 115.423 19.64L115.903 22.544C115.711 22.64 115.455 22.736 115.135 22.832C114.815 22.928 114.455 23.008 114.055 23.072C113.671 23.152 113.255 23.216 112.807 23.264C112.359 23.312 111.911 23.336 111.463 23.336C110.327 23.336 109.335 23.168 108.487 22.832C107.655 22.496 106.959 22.04 106.399 21.464C105.855 20.872 105.447 20.176 105.175 19.376C104.919 18.576 104.791 17.712 104.791 16.784ZM113.191 15.416C113.175 15.112 113.119 14.816 113.023 14.528C112.943 14.24 112.807 13.984 112.615 13.76C112.439 13.536 112.207 13.352 111.919 13.208C111.647 13.064 111.303 12.992 110.887 12.992C110.487 12.992 110.143 13.064 109.855 13.208C109.567 13.336 109.327 13.512 109.135 13.736C108.943 13.96 108.791 14.224 108.679 14.528C108.583 14.816 108.511 15.112 108.463 15.416H113.191Z" fill="#00D7D7"/>
<path d="M14.3685 8.35969C14.9878 8.55066 15.5355 8.97525 15.8613 9.58761C16.3607 10.5262 16.1984 11.6452 15.5456 12.4118L17.5838 15.7628C18.3224 15.5571 19.1055 15.712 19.718 16.1436L21.3759 14.7589L22.2482 15.8048L20.5746 17.2057C21.0798 18.394 20.6108 19.8069 19.4512 20.4238C18.2264 21.0755 16.6871 20.6014 16.0355 19.3767C15.5191 18.4062 15.7152 17.2464 16.4247 16.4795L14.411 13.1687C13.8223 13.3592 13.1999 13.316 12.6498 13.0845L9.55375 16.8206C9.61203 16.9038 9.67444 16.9824 9.72328 17.0741C10.3749 18.2988 9.90353 19.8431 8.67876 20.4947C7.454 21.1464 5.9147 20.6722 5.26305 19.4475C4.89557 18.7569 4.89542 17.9712 5.17537 17.2966L3.03717 15.5057L3.91129 14.4651L6.01753 16.2274C6.11067 16.1599 6.2013 16.0889 6.3057 16.0333C7.00958 15.6588 7.81386 15.6642 8.49809 15.9603L11.584 12.2351C11.5203 12.1461 11.4537 12.0604 11.401 11.9612C10.7494 10.7364 11.2208 9.19218 12.4456 8.54053C13.0579 8.21467 13.749 8.16957 14.3685 8.35969Z" fill="#00D7D7"/>
<circle cx="13" cy="15" r="12.35" stroke="#00D7D7" stroke-width="1.3"/>
</svg>
